<svg width="2722.5511" height="436.88977" xmlns="http://www.w3.org/2000/svg">

 <g>
  <title>background</title>
  <rect fill="none" id="canvas_background" height="438.88977" width="2724.5511" y="-1" x="-1"/>
 </g>
 <g>
  <title>Layer 1</title>
  <path id="svg_2" stroke="#fff" fill-rule="evenodd" fill="#008eb7" d="m34.25326,435.75932l35.866,0l20.244,0.266l250.294,0.299c38.289,0.045 126.473,-66.45 107.74,-154.87c-13.361,-63.07 -64.121,-101.714 -126.653,-104.367c-33.064,-1.403 -136.179,-0.561 -156.915,-1.122c-20.735,-0.561 -45.113,0 -45.113,0c-47.643,-12.49 -42.741,-78.38 3.082,-86.131c13.563,-2.294 100.033,0 100.033,0l14.571,0.421c0.003,0 -16.612,-11.396 -21.378,-19.962c-10.983,-19.741 -9.953,-47.709 18.296,-66.731c0.032,-0.022 -89.535,-1.821 -124.972,0.421c-76.885,4.864 -122.849,99.55 -102.694,167.353c13.155,44.257 63.284,91.743 111.521,91.743l210.645,0.003c51.286,5.022 42.378,75.84 7.634,84.024l-301.361,3.645s-8.757,0.569 -19.685,10.458c-26.239,23.746 -15.202,64.272 18.845,74.55zm554.774,-285.908c38.398,0 69.537,31.139 69.537,69.537c0,38.397 -31.139,69.536 -69.537,69.536c-38.397,0 -69.536,-31.139 -69.536,-69.536c0,-38.398 31.139,-69.537 69.536,-69.537zm263.706,-66.751s36.147,-11.502 56.602,-36.192c20.455,-24.689 20.174,-26.933 20.174,-26.933s6.857,9.406 7.978,15.018c1.121,5.611 0.989,188.666 0.989,188.666c0.007,47.777 -84.046,45.273 -84.905,3.088c-0.14,-6.873 -0.838,-143.646 -0.838,-143.646l0,-0.001zm-160.838,-62.284c26.534,21.696 48.051,41.799 65.706,71.263c2.942,4.909 9.947,19.358 9.947,19.358l0.14,-75.189c0.021,-11.641 -18.733,-30.721 -30.542,-32.264c-23.918,-3.126 -27.669,1.56 -43.572,12.765c-2.259,1.593 -1.679,4.068 -1.679,4.068l0,-0.001zm-422.115,-17.415c-47.925,10.937 -44.621,80.375 0.522,86.393c15.71,2.094 295.007,0.08 297.765,0.436c109.202,14.089 147.02,158.487 72.839,223.183c-19.175,16.723 -63.183,36.879 -76.809,36.659c-31.649,-0.511 -94.864,-1.337 -94.952,-1.012c-4.087,14.912 -14.33,37.046 -24.572,48.967c-21.48,25.002 -44.661,32.264 -44.672,34.344l-0.02,3.366c59.801,0.074 163.219,1.455 179.404,0.222c46.973,-3.578 116.702,-48.653 142.629,-85.088c1.913,-2.688 45.215,56.962 90.244,69.666c98.053,27.663 170.781,13.66 230.964,-42.096c24.192,-22.413 64.485,-81.596 67.156,-128.017c0.386,-6.717 -1.399,-221.056 -1.399,-221.056c-8.931,-31.407 -67.005,-41.097 -81.497,4.897c-2.973,9.435 -2.448,200.419 -2.448,200.419c-8.708,76.344 -82.727,129.835 -165.093,111.577c-42.082,-9.328 -83.18,-53.656 -91.009,-95.743c-4.849,-26.07 -4.133,-53.82 -9.131,-79.127c-10.788,-54.619 -46.747,-103.927 -94.334,-134.679c-26.512,-17.132 -62.082,-33.331 -91.227,-33.827c-103.409,-1.76 -201.943,1.115 -304.361,0.515l0.001,0.001z"/>
  <text stroke="null" transform="matrix(2.371784529656452,0,0,2.181837145997453,-431.1037814623487,-541.4546022385006) " xml:space="preserve" text-anchor="start" font-family="Helvetica, Arial, sans-serif" font-size="24" id="svg_4" y="396.184428" x="200.835036" stroke-opacity="null" stroke-width="0" fill="#003f7f">powered by</text>
  <text stroke="#fff" transform="matrix(8.668328285217285,0,0,11.996513366699219,-9219.96658667922,-583.8461315631866) " xml:space="preserve" text-anchor="start" font-family="Helvetica, Arial, sans-serif" font-size="24" id="svg_6" y="74.271713" x="1202.355941" fill-opacity="null" stroke-opacity="null" stroke-width="0" fill="#003f7f"/>
  <text font-weight="bold" stroke="#fff" transform="matrix(19.92503854532548,0,0,24.37802819851883,-22290.637165119544,-4129.966089515393) " xml:space="preserve" text-anchor="start" font-family="Oswald, sans-serif" font-size="24" id="svg_8" y="186.980724" x="1174.949245" stroke-opacity="null" stroke-width="0" fill="#008eb7">DENTS</text>
 </g>
</svg>